<?xml version="1.0" encoding="utf-8"?>
<!-- Generator: Adobe Illustrator 26.3.1, SVG Export Plug-In . SVG Version: 6.00 Build 0)  -->
<svg version="1.1" id="Layer_1" xmlns="http://www.w3.org/2000/svg" xmlns:xlink="http://www.w3.org/1999/xlink" x="0px" y="0px"
	 viewBox="0 0 258.7 79.1" style="enable-background:new 0 0 258.7 79.1;" xml:space="preserve">
<style type="text/css">
	.st0{fill:#BC1839;}
	.st1{fill-rule:evenodd;clip-rule:evenodd;fill:#FFFFFF;}
	.st2{fill:none;stroke:#000000;stroke-width:0.1306;stroke-miterlimit:2.6131;}
	.st3{fill-rule:evenodd;clip-rule:evenodd;}
	.st4{fill:none;stroke:#000000;stroke-width:8.709899e-02;stroke-miterlimit:2.6131;}
	.st5{fill-rule:evenodd;clip-rule:evenodd;fill:#BC1839;}
	.st6{fill-rule:evenodd;clip-rule:evenodd;fill:#F48120;}
</style>
<g>
	<g>
		<g>
			<g>
				<g>
					<path class="st0" d="M29.4,13v0.4c-0.8,0.2-1.3,0.5-1.6,0.8c-0.3,0.3-0.4,0.8-0.4,1.5v3.4c0,0.3,0,0.6,0,0.9c0,0.3,0,0.7,0.1,1
						c-1.1,0.9-2.5,1.6-3.9,2.1c-1.5,0.5-3.1,0.7-5,0.7c-3.7,0-6.6-1-8.8-2.9c-2.2-1.9-3.3-4.5-3.3-7.7c0-3.1,1.1-5.7,3.4-7.6
						c2.3-1.9,5.2-2.9,8.9-2.9c1.6,0,3.2,0.2,4.7,0.6c1.5,0.4,2.9,1,4.2,1.8l-1.8,5L25.5,10c-0.3-2.1-1-3.7-2.1-4.7
						c-1-1-2.5-1.6-4.2-1.6c-2.3,0-4,0.8-5.2,2.4c-1.1,1.6-1.7,4-1.7,7.2c0,3.3,0.5,5.7,1.5,7.3c1,1.6,2.5,2.3,4.6,2.3
						c1.5,0,2.5-0.4,3.1-1.1c0.6-0.7,0.9-2.1,0.9-4.1c0-1.7-0.2-2.8-0.7-3.3c-0.5-0.5-1.4-0.8-2.9-0.9V13c0.9,0,1.7,0.1,2.6,0.1
						c0.9,0,1.8,0,2.7,0c0.8,0,1.7,0,2.6,0C27.5,13,28.4,13,29.4,13z"/>
					<path class="st0" d="M31.6,11.3c0-1.3-0.1-2.1-0.3-2.5c-0.2-0.4-0.6-0.6-1.1-0.6V7.8c1-0.1,1.9-0.3,2.9-0.5
						C34,7.2,35,7,35.9,6.8v3.4c0.5-1.1,1-2,1.6-2.5c0.6-0.6,1.3-0.8,2-0.8c0.2,0,0.3,0,0.5,0c0.1,0,0.2,0,0.3,0L39,12.7
						c-0.2-0.5-0.4-0.9-0.6-1.1s-0.5-0.4-0.8-0.4c-0.6,0-1,0.5-1.3,1.6c-0.3,1.1-0.4,2.8-0.4,5.3c0,1.7,0.1,2.9,0.3,3.6
						c0.2,0.7,0.6,1.2,1.1,1.4v0.3c-0.6,0-1.2-0.1-1.8-0.1c-0.6,0-1.2,0-1.8,0c-0.6,0-1.2,0-1.9,0c-0.6,0-1.3,0-1.9,0.1V23
						c0.6-0.3,1-0.7,1.2-1.5c0.2-0.7,0.3-2.3,0.3-4.6V16V11.3z"/>
					<path class="st0" d="M49.6,11.6c0-1.3-0.2-2.2-0.6-2.9c-0.4-0.7-1-1-1.7-1c-0.8,0-1.5,0.4-2.1,1.3c-0.6,0.9-1.2,2.2-1.8,4H43
						l-1-4.8c1-0.5,1.9-0.9,3-1.1c1-0.3,2.1-0.4,3.1-0.4c2.1,0,3.7,0.5,4.6,1.6c0.9,1.1,1.4,3,1.4,5.6v6c0,0.8,0.1,1.3,0.2,1.7
						c0.1,0.4,0.4,0.8,0.8,1.1l0,0.4c-0.5,0-0.9,0-1.3,0c-0.3,0-0.7,0-1,0c-0.3,0-0.5,0-0.9,0c-0.3,0-0.8,0-1.5,0.1L50,21.3
						c-0.5,0.9-1,1.5-1.7,1.9c-0.7,0.4-1.4,0.6-2.4,0.6c-1.5,0-2.7-0.5-3.7-1.4c-0.9-1-1.4-2.2-1.4-3.7c0-1.7,0.7-3.1,2-4
						c1.3-0.9,3.2-1.4,5.8-1.4c0.3,0,0.5,0,0.6,0c0.1,0,0.3,0,0.4,0V11.6z M49.6,14.3c-1.4,0-2.5,0.4-3.1,1.2c-0.7,0.8-1,2-1,3.6
						c0,1,0.2,1.8,0.5,2.4c0.3,0.6,0.8,0.9,1.4,0.9c0.7,0,1.3-0.5,1.7-1.4c0.4-1,0.6-2.3,0.6-4V14.3z"/>
					<path class="st0" d="M61.5,22.2v0.7c0,2.5,0.1,4,0.4,4.7c0.3,0.7,0.8,1.1,1.6,1.3v0.3c-0.7,0-1.3-0.1-2-0.1s-1.3,0-2,0
						c-0.7,0-1.3,0-2,0c-0.7,0-1.3,0-2,0.1V29c0.6-0.2,1-0.7,1.2-1.4c0.2-0.7,0.3-2.3,0.3-4.6V22V11.7c0-1.3-0.1-2.1-0.3-2.5
						c-0.2-0.4-0.6-0.6-1.1-0.6V8.3c1-0.2,1.9-0.3,2.9-0.5c0.9-0.2,1.9-0.4,2.8-0.6v2.4c0.4-0.9,1-1.6,1.7-2.1
						c0.7-0.5,1.6-0.7,2.5-0.7c1.8,0,3.4,0.8,4.6,2.3c1.2,1.5,1.8,3.5,1.8,6c0,2.4-0.6,4.5-1.8,6.1c-1.2,1.6-2.7,2.4-4.5,2.4
						c-0.9,0-1.7-0.2-2.4-0.7c-0.7-0.4-1.3-1.1-1.8-2V22.2z M64.5,21.9c0.9,0,1.7-0.6,2.2-1.7c0.5-1.1,0.8-2.7,0.8-4.7
						c0-2.4-0.3-4.2-0.8-5.4c-0.5-1.2-1.2-1.8-2.2-1.8c-1,0-1.7,0.6-2.2,1.8c-0.5,1.2-0.8,2.9-0.8,5.1c0,2.2,0.3,3.9,0.8,5.1
						C62.8,21.4,63.5,21.9,64.5,21.9z"/>
					<path class="st0" d="M74.6,5.3c0-1.3-0.1-2.1-0.3-2.5c-0.2-0.4-0.6-0.6-1.1-0.6V1.9c1-0.2,1.9-0.3,2.9-0.5C77,1.2,78,1,79,0.8
						v8.8c0.4-1,0.9-1.7,1.6-2.1c0.6-0.5,1.4-0.7,2.3-0.7c1.7,0,2.9,0.6,3.7,1.8c0.8,1.2,1.2,3.1,1.2,5.7V16c0,2.8,0.1,4.6,0.3,5.4
						c0.2,0.8,0.6,1.4,1.2,1.5v0.3c-0.6,0-1.2-0.1-1.8-0.1c-0.6,0-1.2,0-1.8,0c-0.6,0-1.2,0-1.8,0c-0.6,0-1.2,0-1.8,0.1l0-0.3
						c0.5-0.2,0.8-0.7,0.9-1.4c0.2-0.7,0.3-1.9,0.3-3.8V16v-1.4c0-2.2-0.2-3.7-0.5-4.6c-0.3-0.9-0.8-1.4-1.5-1.4
						c-0.8,0-1.3,0.5-1.8,1.6c-0.4,1.1-0.6,2.5-0.6,4.4V16c0,2.9,0.1,4.7,0.3,5.5c0.2,0.8,0.5,1.3,1,1.5v0.3c-0.5,0-1.1-0.1-1.7-0.1
						c-0.6,0-1.1,0-1.8,0c-0.6,0-1.2,0-1.8,0c-0.6,0-1.3,0-1.9,0.1l0-0.3c0.6-0.3,1-0.7,1.2-1.5c0.2-0.7,0.3-2.3,0.3-4.6V16V5.3z"/>
					<path class="st0" d="M91,11.3c0-1.3-0.1-2.1-0.3-2.5c-0.2-0.4-0.6-0.6-1.1-0.6V7.8c0.9-0.1,1.9-0.3,2.8-0.5
						c1-0.2,1.9-0.4,2.9-0.6v10.2c0,2.4,0.1,3.9,0.3,4.7c0.2,0.7,0.6,1.2,1.1,1.4l0,0.3c-0.6,0-1.2-0.1-1.8-0.1c-0.6,0-1.2,0-1.8,0
						c-0.6,0-1.2,0-1.8,0c-0.6,0-1.3,0-1.9,0.1l0-0.3c0.6-0.3,1-0.7,1.2-1.5c0.2-0.7,0.3-2.3,0.3-4.6V16V11.3z M91,3.2
						c0-0.7,0.2-1.3,0.6-1.7C92,1,92.5,0.8,93.1,0.8c0.6,0,1.1,0.2,1.6,0.7c0.4,0.5,0.7,1,0.7,1.7c0,0.7-0.2,1.3-0.7,1.7
						c-0.4,0.5-1,0.7-1.6,0.7c-0.6,0-1.1-0.2-1.5-0.7C91.2,4.5,91,3.9,91,3.2z"/>
					<path class="st0" d="M108.9,13.4c-0.4-2-0.8-3.5-1.3-4.3c-0.5-0.9-1.2-1.3-2-1.3c-1,0-1.8,0.7-2.5,2.1c-0.7,1.4-1,3.1-1,5.3
						c0,2.3,0.3,4,1,5.2c0.6,1.2,1.6,1.7,2.8,1.7c0.8,0,1.5-0.3,2.1-0.9c0.6-0.6,1.2-1.5,1.6-2.6l0.8,0.4c-0.6,1.6-1.3,2.7-2.3,3.6
						c-1,0.8-2.2,1.2-3.5,1.2c-2,0-3.7-0.8-5-2.5c-1.3-1.7-2-3.7-2-6.2c0-2.5,0.7-4.5,2.1-6c1.4-1.5,3.2-2.3,5.4-2.3
						c1,0,2,0.2,2.8,0.5c0.9,0.3,1.7,0.8,2.5,1.4l-1.1,4.8L108.9,13.4z"/>
					<path class="st0" d="M119.7,23.3v-0.4c0.8-0.2,1.4-0.6,1.7-1.4c0.3-0.8,0.5-2.5,0.5-5.3V6c0-0.7-0.1-1.2-0.4-1.6
						c-0.3-0.4-0.7-0.6-1.4-0.8V3.2c0,0,0.1,0,0.2,0c2.1,0,3.7,0.1,4.8,0.1h12.7l1.7,5.1l-0.5,0.1c-1.3-1.4-2.7-2.5-4.4-3.2
						c-1.6-0.7-3.5-1-5.7-1c-0.5,0-0.9,0-1.1,0c-0.2,0-0.5,0-0.7,0.1v7.7c0.3,0,0.7,0,1,0c0.3,0,0.6,0,1,0c1.8,0,3.3-0.3,4.5-0.9
						c1.2-0.6,1.9-1.4,2.3-2.4h0.4v7.6h-0.4c-0.4-1.1-1.1-1.9-2.3-2.5c-1.2-0.6-2.7-0.9-4.5-0.9c-0.5,0-0.9,0-1.2,0
						c-0.3,0-0.5,0-0.7,0v2.8c0,2.8,0.2,4.5,0.7,5.2c0.5,0.7,1.4,1,2.9,1c1.8,0,3.5-0.5,5.1-1.4c1.6-0.9,3.1-2.3,4.5-4.2l0.5,0.2
						l-2,6.5h-12.7c-0.2,0-0.6,0-1,0c-0.5,0-0.8,0-1,0c-0.8,0-1.6,0-2.3,0C121.2,23.2,120.5,23.2,119.7,23.3z"/>
					<path class="st0" d="M142.9,11.3c0-1.3-0.1-2.1-0.3-2.5c-0.2-0.4-0.6-0.6-1.1-0.6V7.8c1-0.1,1.9-0.3,2.9-0.5
						c1-0.2,1.9-0.4,2.8-0.6v3.4c0.5-1.1,1-2,1.6-2.5c0.6-0.6,1.3-0.8,2-0.8c0.2,0,0.3,0,0.5,0c0.1,0,0.2,0,0.3,0l-1.4,5.8
						c-0.2-0.5-0.4-0.9-0.6-1.1c-0.2-0.3-0.5-0.4-0.8-0.4c-0.6,0-1,0.5-1.3,1.6c-0.3,1.1-0.4,2.8-0.4,5.3c0,1.7,0.1,2.9,0.3,3.6
						c0.2,0.7,0.6,1.2,1.1,1.4v0.3c-0.6,0-1.2-0.1-1.8-0.1c-0.6,0-1.2,0-1.8,0c-0.6,0-1.2,0-1.9,0c-0.6,0-1.3,0-1.9,0.1V23
						c0.6-0.3,1-0.7,1.2-1.5c0.2-0.7,0.3-2.3,0.3-4.6V16V11.3z"/>
					<path class="st0" d="M160.9,11.6c0-1.3-0.2-2.2-0.6-2.9c-0.4-0.7-1-1-1.7-1c-0.8,0-1.5,0.4-2.1,1.3c-0.6,0.9-1.2,2.2-1.8,4
						h-0.5l-1-4.8c1-0.5,1.9-0.9,3-1.1c1-0.3,2.1-0.4,3.1-0.4c2.1,0,3.7,0.5,4.6,1.6c0.9,1.1,1.4,3,1.4,5.6v6c0,0.8,0.1,1.3,0.2,1.7
						c0.2,0.4,0.4,0.8,0.8,1.1l0,0.4c-0.5,0-0.9,0-1.3,0c-0.3,0-0.7,0-1,0c-0.3,0-0.5,0-0.9,0c-0.3,0-0.8,0-1.5,0.1l-0.4-1.9
						c-0.5,0.9-1,1.5-1.7,1.9c-0.7,0.4-1.4,0.6-2.4,0.6c-1.5,0-2.7-0.5-3.7-1.4c-0.9-1-1.4-2.2-1.4-3.7c0-1.7,0.7-3.1,2-4
						c1.3-0.9,3.2-1.4,5.8-1.4c0.3,0,0.5,0,0.6,0c0.1,0,0.3,0,0.4,0V11.6z M160.9,14.3c-1.4,0-2.5,0.4-3.1,1.2c-0.7,0.8-1,2-1,3.6
						c0,1,0.2,1.8,0.5,2.4c0.3,0.6,0.8,0.9,1.4,0.9c0.7,0,1.3-0.5,1.7-1.4c0.4-1,0.6-2.3,0.6-4V14.3z"/>
				</g>
			</g>
		</g>
		<g>
			<path class="st0" d="M54.8,50.6c0,1.6,0,2.9,0.1,3.9c0.1,1,0.2,1.7,0.4,2.2c0.4,0.9,0.9,1.6,1.7,2.1c0.8,0.5,1.8,0.7,2.9,0.7
				c1.9,0,3.3-0.6,4.3-1.7c1-1.1,1.5-2.7,1.5-4.8v-2.7c0-3-0.2-5-0.7-6c-0.4-1-1.2-1.6-2.4-2l0-0.4c0.7,0,1.4,0,1.9,0.1
				c0.6,0,1,0,1.4,0c0.5,0,1.1,0,1.8,0c0.6,0,1.3,0,2-0.1l0,0.3c-1.2,0.4-2,1.1-2.4,2c-0.4,1-0.7,3-0.7,6v2.5c0,2.7-0.7,4.7-2,6
				c-1.3,1.3-3.4,1.9-6.2,1.9c-1.5,0-2.9-0.2-4-0.5c-1.1-0.3-2-0.8-2.7-1.5c-0.7-0.6-1.1-1.3-1.4-2.2c-0.3-0.9-0.4-2.2-0.4-3.8
				c0-0.7,0-1.5,0-2.4c0-0.9,0-1.5,0-1.8v-4.1c0-0.6-0.1-1.1-0.4-1.5c-0.3-0.3-0.7-0.6-1.3-0.7v-0.4c0.6,0,1.2,0.1,1.9,0.1
				c0.6,0,1.3,0,2,0c0.7,0,1.4,0,2.1,0c0.7,0,1.4,0,2.1-0.1v0.4c-0.6,0.1-1,0.3-1.3,0.7c-0.3,0.3-0.4,0.8-0.4,1.5V50.6z"/>
			<path class="st0" d="M74.4,47.8c0.4-0.9,0.9-1.5,1.5-1.9c0.6-0.4,1.3-0.6,2.1-0.6c1.5,0,2.6,0.6,3.3,1.7c0.7,1.1,1.1,2.8,1.1,5.2
				v1.6c0,2.5,0.1,4.2,0.3,4.9s0.6,1.2,1.1,1.4v0.3c-0.5,0-1.1,0-1.6-0.1c-0.5,0-1.1,0-1.6,0c-0.5,0-1.1,0-1.6,0
				c-0.5,0-1.1,0-1.6,0.1l0-0.3c0.4-0.2,0.7-0.6,0.9-1.2c0.2-0.6,0.2-1.8,0.2-3.5v-1.6v-1.3c0-2-0.1-3.4-0.4-4.2
				c-0.3-0.8-0.7-1.3-1.4-1.3c-0.7,0-1.2,0.5-1.6,1.4c-0.4,1-0.6,2.3-0.6,4v1.3c0,2.6,0.1,4.3,0.2,5c0.2,0.7,0.5,1.1,0.9,1.3v0.3
				c-0.5,0-1,0-1.5-0.1c-0.5,0-1,0-1.6,0c-0.5,0-1.1,0-1.7,0c-0.6,0-1.2,0-1.8,0.1l0-0.3c0.5-0.2,0.9-0.7,1.1-1.3
				c0.2-0.7,0.3-2.1,0.3-4.2v-0.8v-3.9c0-1.2-0.1-2-0.3-2.3c-0.2-0.3-0.5-0.5-1-0.6v-0.3c0.9-0.1,1.8-0.3,2.7-0.5
				c0.9-0.2,1.7-0.4,2.5-0.6V47.8z"/>
			<path class="st0" d="M85.4,49.4c0-1.2-0.1-1.9-0.3-2.3c-0.2-0.3-0.5-0.5-1-0.6v-0.3c0.8-0.1,1.7-0.3,2.6-0.4
				c0.9-0.2,1.8-0.3,2.7-0.5v9.3c0,2.2,0.1,3.6,0.3,4.2c0.2,0.7,0.5,1.1,1,1.2l0,0.3c-0.5,0-1.1,0-1.6-0.1c-0.5,0-1.1,0-1.7,0
				c-0.5,0-1.1,0-1.7,0c-0.6,0-1.2,0-1.8,0.1l0-0.3c0.5-0.2,0.9-0.7,1.1-1.3c0.2-0.7,0.3-2.1,0.3-4.2v-0.8V49.4z M85.4,41.9
				c0-0.6,0.2-1.1,0.6-1.6c0.4-0.4,0.8-0.6,1.4-0.6c0.6,0,1,0.2,1.4,0.6c0.4,0.4,0.6,0.9,0.6,1.6c0,0.6-0.2,1.2-0.6,1.6
				c-0.4,0.4-0.9,0.7-1.4,0.7c-0.6,0-1-0.2-1.4-0.6C85.6,43.1,85.4,42.6,85.4,41.9z"/>
			<path class="st0" d="M100,49.2c0.1-0.3,0.2-0.6,0.3-0.9c0.1-0.3,0.1-0.5,0.1-0.8c0-0.5-0.1-0.9-0.3-1.2c-0.2-0.3-0.6-0.5-1.1-0.6
				v-0.3c0.4,0,0.9,0,1.3,0.1c0.4,0,0.9,0,1.3,0c0.4,0,0.9,0,1.3,0c0.4,0,0.9,0,1.3-0.1l0,0.3c-0.5,0.3-1,0.7-1.6,1.4
				c-0.5,0.7-1,1.5-1.4,2.5l-4.5,11h-0.2L92,49.4c0,0,0-0.1-0.1-0.2c-0.9-2.2-1.6-3.3-2.2-3.4l0-0.3c0.5,0,1.1,0,1.7,0.1
				c0.6,0,1.1,0,1.7,0c0.6,0,1.2,0,1.8,0c0.6,0,1.2,0,1.8-0.1v0.3c-0.4,0.2-0.7,0.4-0.9,0.7c-0.2,0.3-0.3,0.6-0.3,1
				c0,0.2,0,0.5,0.1,0.8c0.1,0.3,0.2,0.6,0.3,1l2.1,5.3L100,49.2z"/>
			<path class="st0" d="M107.6,51.4v0.8c0,2.3,0.3,4.1,1,5.3c0.6,1.2,1.6,1.7,2.9,1.7c0.9,0,1.7-0.4,2.4-1.3
				c0.7-0.9,1.2-2.1,1.5-3.7l0.7,0.5c-0.3,1.9-1,3.4-2.1,4.5c-1.1,1.1-2.5,1.6-4.1,1.6c-1.9,0-3.4-0.7-4.6-2.2
				c-1.2-1.5-1.8-3.4-1.8-5.7c0-2.2,0.6-4,1.9-5.4c1.3-1.4,2.8-2.2,4.7-2.2c1.8,0,3.3,0.6,4.4,1.7c1.1,1.1,1.7,2.6,1.7,4.5H107.6z
				 M107.7,50.2h4.2c0-1.3-0.2-2.3-0.5-3.1c-0.3-0.7-0.8-1.1-1.4-1.1c-0.6,0-1.2,0.4-1.6,1.1C108,47.9,107.7,48.9,107.7,50.2z"/>
			<path class="st0" d="M118.8,49.4c0-1.2-0.1-1.9-0.3-2.3c-0.2-0.3-0.5-0.5-1-0.6v-0.3c0.9-0.1,1.8-0.3,2.6-0.4
				c0.9-0.2,1.7-0.3,2.6-0.5v3.1c0.4-1,0.9-1.8,1.5-2.3c0.6-0.5,1.2-0.8,1.9-0.8c0.2,0,0.3,0,0.4,0c0.1,0,0.2,0,0.3,0l-1.2,5.3
				c-0.1-0.5-0.3-0.8-0.5-1c-0.2-0.2-0.5-0.3-0.7-0.3c-0.5,0-0.9,0.5-1.2,1.5c-0.2,1-0.4,2.6-0.4,4.8c0,1.5,0.1,2.6,0.3,3.3
				c0.2,0.7,0.5,1.1,1,1.2v0.3c-0.5,0-1.1,0-1.6-0.1c-0.5,0-1.1,0-1.7,0s-1.1,0-1.7,0c-0.6,0-1.2,0-1.8,0.1V60
				c0.5-0.2,0.9-0.7,1.1-1.3c0.2-0.7,0.3-2.1,0.3-4.2v-0.8V49.4z"/>
			<path class="st0" d="M127,59.1l1.2-4.7l0.4,0.2c0.2,1.6,0.6,2.9,1.3,3.8c0.6,0.9,1.4,1.4,2.3,1.4c0.7,0,1.3-0.3,1.7-0.8
				c0.5-0.5,0.7-1.1,0.7-1.9c0-0.7-0.1-1.2-0.4-1.6c-0.3-0.4-1-0.8-2.2-1.2c-1.8-0.6-2.9-1.2-3.4-1.8c-0.5-0.6-0.7-1.4-0.7-2.5
				c0-1.4,0.5-2.5,1.5-3.4c1-0.9,2.3-1.3,4-1.3c0.7,0,1.5,0.1,2.3,0.3c0.8,0.2,1.6,0.5,2.4,1l-1,3.8l-0.4-0.1
				c-0.1-1.4-0.4-2.4-0.9-3.1c-0.5-0.7-1.2-1.1-2-1.1c-0.6,0-1.1,0.2-1.4,0.6c-0.4,0.4-0.6,1-0.6,1.6c0,0.8,0.2,1.4,0.5,1.7
				c0.3,0.4,1,0.7,2.1,1c1.7,0.5,2.8,1,3.3,1.7c0.5,0.6,0.8,1.6,0.8,2.8c0,1.6-0.6,2.8-1.7,3.8c-1.1,1-2.6,1.4-4.4,1.4
				c-0.9,0-1.8-0.1-2.7-0.4C128.7,60,127.8,59.6,127,59.1z"/>
			<path class="st0" d="M140.8,49.4c0-1.2-0.1-1.9-0.3-2.3c-0.2-0.3-0.5-0.5-1-0.6v-0.3c0.8-0.1,1.7-0.3,2.6-0.4
				c0.9-0.2,1.8-0.3,2.7-0.5v9.3c0,2.2,0.1,3.6,0.3,4.2c0.2,0.7,0.5,1.1,1,1.2l0,0.3c-0.5,0-1.1,0-1.6-0.1c-0.5,0-1.1,0-1.7,0
				c-0.5,0-1.1,0-1.7,0c-0.6,0-1.2,0-1.8,0.1l0-0.3c0.5-0.2,0.9-0.7,1.1-1.3c0.2-0.7,0.3-2.1,0.3-4.2v-0.8V49.4z M140.8,41.9
				c0-0.6,0.2-1.1,0.6-1.6c0.4-0.4,0.8-0.6,1.4-0.6s1,0.2,1.4,0.6c0.4,0.4,0.6,0.9,0.6,1.6c0,0.6-0.2,1.2-0.6,1.6
				c-0.4,0.4-0.9,0.7-1.4,0.7s-1-0.2-1.4-0.6C140.9,43.1,140.8,42.6,140.8,41.9z"/>
			<path class="st0" d="M152,53.4c0,2.5,0.1,4.1,0.4,5c0.3,0.8,0.8,1.4,1.5,1.6v0.3h0c-1.1,0-2.7,0-4.9-0.1c-0.4-0.2-0.7-0.6-0.8-1
				c-0.2-0.5-0.2-1.3-0.2-2.5c0-0.3,0-0.8,0-1.4c0-0.6,0-1,0-1.2V47h-1.6l0.2-0.8c1.2-0.6,2.2-1.3,3-2.1c0.8-0.8,1.5-1.7,2.1-2.8
				h0.4c0,0.4-0.1,0.8-0.1,1.3c0,0.5,0,1.2,0,1.9v1.3h2l-0.3,1.2H152V53.4z"/>
			<path class="st0" d="M163.4,49.2c0.1-0.4,0.2-0.8,0.3-1c0.1-0.3,0.1-0.5,0.1-0.7c0-0.5-0.1-0.8-0.3-1.1c-0.2-0.3-0.6-0.5-1.1-0.6
				v-0.3c0.4,0,0.9,0,1.3,0.1c0.4,0,0.9,0,1.3,0c0.4,0,0.9,0,1.3,0c0.4,0,0.9,0,1.3-0.1l0,0.3c-0.6,0.4-1.2,0.9-1.7,1.6
				c-0.5,0.7-0.9,1.4-1.2,2.3l-3.1,8.3c-1.1,3-2.1,5.1-3,6.1c-0.8,1-1.8,1.6-3,1.6c-0.1,0-0.3,0-0.4,0c-0.1,0-0.2-0.1-0.4-0.1l1.4-5
				l0.4,0.1c0.1,0.6,0.3,1,0.4,1.2c0.2,0.2,0.4,0.3,0.8,0.3c0.4,0,0.7-0.2,1-0.5c0.3-0.3,0.4-0.8,0.4-1.3c0-0.2,0-0.5-0.1-0.7
				c-0.1-0.2-0.2-0.6-0.3-1l-4-10.7c-0.3-0.7-0.6-1.3-0.8-1.7c-0.3-0.4-0.6-0.6-0.9-0.6l0-0.3c0.5,0,1.1,0,1.7,0.1
				c0.6,0,1.1,0,1.7,0c0.6,0,1.2,0,1.8,0c0.6,0,1.2,0,1.8-0.1v0.3c-0.4,0.2-0.7,0.5-0.9,0.7c-0.2,0.3-0.3,0.6-0.3,1
				c0,0.2,0,0.5,0.1,0.8c0.1,0.3,0.2,0.6,0.3,1l2.2,5.6L163.4,49.2z"/>
		</g>
		<g>
			<path d="M69.5,37.6v-0.1c0.4-0.1,0.7-0.3,0.9-0.7c0.2-0.4,0.2-1.3,0.2-2.8v-5.3c0-0.4-0.1-0.7-0.2-0.9c-0.1-0.2-0.4-0.3-0.7-0.4
				l0-0.2c0.3,0,0.5,0,0.8,0c0.3,0,0.7,0,1.1,0c0.4,0,1,0,1.6,0c0.6,0,1,0,1.2,0c1.2,0,2.1,0.1,2.9,0.2c0.7,0.2,1.4,0.4,1.9,0.8
				c0.7,0.5,1.2,1,1.6,1.7c0.4,0.7,0.5,1.4,0.5,2.2c0,0.7-0.1,1.4-0.3,2c-0.2,0.6-0.6,1.2-1,1.6c-0.6,0.6-1.3,1.1-2.1,1.4
				s-1.9,0.4-3.2,0.4h-2.9H69.5z M73.2,27.9v6.1c0,0.7,0,1.2,0,1.6c0,0.4,0.1,0.7,0.1,0.9c0.1,0.3,0.2,0.4,0.4,0.6
				c0.2,0.1,0.6,0.2,1.1,0.2c1.1,0,1.9-0.4,2.5-1.2c0.6-0.8,0.9-2,0.9-3.5c0-1.6-0.3-2.7-0.9-3.5c-0.6-0.7-1.5-1.1-2.7-1.1
				c-0.2,0-0.4,0-0.6,0C73.7,27.8,73.5,27.8,73.2,27.9z"/>
			<path d="M84.6,32.6V33c0,1.3,0.2,2.3,0.6,3c0.4,0.7,0.9,1,1.7,1c0.5,0,1-0.3,1.4-0.8c0.4-0.5,0.7-1.2,0.9-2.1l0.4,0.3
				c-0.2,1.1-0.6,1.9-1.2,2.6c-0.6,0.6-1.4,0.9-2.3,0.9c-1.1,0-1.9-0.4-2.6-1.3s-1-1.9-1-3.2c0-1.2,0.4-2.3,1.1-3.1
				c0.7-0.8,1.6-1.2,2.7-1.2c1,0,1.9,0.3,2.5,1c0.6,0.6,0.9,1.5,0.9,2.6H84.6z M84.6,31.9H87c0-0.8-0.1-1.3-0.3-1.7
				c-0.2-0.4-0.5-0.6-0.8-0.6c-0.4,0-0.7,0.2-0.9,0.6C84.8,30.6,84.7,31.2,84.6,31.9z"/>
			<path d="M92.6,32.6V33c0,1.3,0.2,2.3,0.6,3c0.4,0.7,0.9,1,1.7,1c0.5,0,1-0.3,1.4-0.8c0.4-0.5,0.7-1.2,0.9-2.1l0.4,0.3
				c-0.2,1.1-0.6,1.9-1.2,2.6c-0.6,0.6-1.4,0.9-2.3,0.9c-1.1,0-1.9-0.4-2.6-1.3c-0.7-0.9-1-1.9-1-3.2c0-1.2,0.4-2.3,1.1-3.1
				c0.7-0.8,1.6-1.2,2.7-1.2c1,0,1.9,0.3,2.5,1c0.6,0.6,0.9,1.5,0.9,2.6H92.6z M92.7,31.9H95c0-0.8-0.1-1.3-0.3-1.7
				c-0.2-0.4-0.5-0.6-0.8-0.6c-0.4,0-0.7,0.2-0.9,0.6C92.8,30.6,92.7,31.2,92.7,31.9z"/>
			<path d="M101.1,30.5c0.2-0.5,0.5-0.9,0.9-1.1c0.3-0.2,0.7-0.3,1.2-0.3c0.5,0,1,0.1,1.4,0.4c0.4,0.3,0.7,0.7,1,1.3
				c0.2-0.6,0.5-1.1,0.9-1.3c0.4-0.3,0.8-0.4,1.3-0.4c0.9,0,1.5,0.3,1.9,0.9c0.4,0.6,0.6,1.6,0.6,2.9v0.9c0,1.4,0.1,2.3,0.2,2.8
				c0.1,0.4,0.3,0.7,0.6,0.8v0.2c-0.3,0-0.6,0-0.9,0c-0.3,0-0.6,0-0.9,0c-0.3,0-0.6,0-0.9,0c-0.3,0-0.6,0-0.9,0l0-0.2
				c0.2-0.1,0.4-0.4,0.5-0.7c0.1-0.3,0.1-1,0.1-2v-0.9v-0.7c0-1.1-0.1-1.9-0.2-2.4c-0.2-0.5-0.4-0.7-0.8-0.7c-0.4,0-0.7,0.3-0.9,0.8
				c-0.2,0.5-0.3,1.3-0.3,2.3v0.7c0,1.5,0,2.4,0.1,2.8c0.1,0.4,0.3,0.6,0.5,0.8v0.2c-0.3,0-0.6,0-0.9,0c-0.3,0-0.6,0-0.9,0
				c-0.3,0-0.6,0-0.9,0c-0.3,0-0.6,0-0.9,0l0-0.2c0.2-0.1,0.4-0.4,0.5-0.7c0.1-0.3,0.1-1,0.1-2v-0.9v-0.7c0-1.1-0.1-1.9-0.2-2.4
				c-0.2-0.5-0.4-0.7-0.8-0.7c-0.4,0-0.7,0.3-0.9,0.8c-0.2,0.5-0.3,1.3-0.3,2.3v0.7c0,1.5,0,2.4,0.1,2.8c0.1,0.4,0.3,0.6,0.5,0.8
				v0.2c-0.3,0-0.6,0-0.9,0c-0.3,0-0.6,0-0.9,0c-0.3,0-0.6,0-0.9,0c-0.3,0-0.7,0-1,0l0-0.2c0.3-0.1,0.5-0.4,0.6-0.8
				c0.1-0.4,0.2-1.2,0.2-2.4v-0.4v-2.2c0-0.7-0.1-1.1-0.2-1.3c-0.1-0.2-0.3-0.3-0.6-0.3v-0.2c0.5-0.1,1-0.2,1.5-0.3
				c0.5-0.1,1-0.2,1.4-0.3V30.5z"/>
			<path d="M113.7,32.6V33c0,1.3,0.2,2.3,0.6,3c0.4,0.7,0.9,1,1.7,1c0.5,0,1-0.3,1.4-0.8c0.4-0.5,0.7-1.2,0.9-2.1l0.4,0.3
				c-0.2,1.1-0.6,1.9-1.2,2.6c-0.6,0.6-1.4,0.9-2.3,0.9c-1.1,0-1.9-0.4-2.6-1.3c-0.7-0.9-1-1.9-1-3.2c0-1.2,0.4-2.3,1.1-3.1
				c0.7-0.8,1.6-1.2,2.7-1.2c1,0,1.9,0.3,2.5,1c0.6,0.6,0.9,1.5,0.9,2.6H113.7z M113.7,31.9h2.4c0-0.8-0.1-1.3-0.3-1.7
				c-0.2-0.4-0.5-0.6-0.8-0.6c-0.4,0-0.7,0.2-0.9,0.6C113.9,30.6,113.8,31.2,113.7,31.9z"/>
			<path d="M125.4,37.6l-0.2-1.2c-0.4,0.5-0.8,0.9-1.2,1.1c-0.4,0.2-0.8,0.4-1.2,0.4c-1,0-1.8-0.4-2.4-1.3c-0.6-0.9-1-2-1-3.3
				c0-1.2,0.3-2.2,1-3c0.6-0.8,1.4-1.2,2.4-1.2c0.4,0,0.8,0.1,1.2,0.3c0.3,0.2,0.6,0.5,0.9,0.9v-1.9c0-0.7-0.1-1.1-0.2-1.3
				c-0.1-0.2-0.3-0.3-0.5-0.3v-0.2c0.5-0.1,1-0.2,1.5-0.3c0.5-0.1,1-0.2,1.4-0.3v8.3c0,1.2,0.1,2,0.2,2.4c0.1,0.4,0.3,0.6,0.6,0.8
				l0,0.2c-0.2,0-0.3,0-0.5,0c-0.2,0-0.4,0-0.8,0c-0.3,0-0.6,0-0.8,0C125.7,37.6,125.6,37.6,125.4,37.6z M121.8,33.4
				c0,1.2,0.1,2.1,0.4,2.7c0.3,0.6,0.7,0.9,1.2,0.9c0.5,0,0.9-0.3,1.1-0.9c0.3-0.6,0.4-1.5,0.4-2.7c0-1.2-0.1-2.1-0.4-2.7
				c-0.3-0.6-0.6-0.9-1.1-0.9c-0.5,0-0.9,0.3-1.2,0.9C121.9,31.3,121.8,32.2,121.8,33.4z"/>
			<path d="M135.6,33.7c0,1.4,0.1,2.3,0.2,2.8c0.2,0.5,0.4,0.8,0.8,0.9v0.2h0c-0.6,0-1.5,0-2.8,0c-0.2-0.1-0.4-0.3-0.5-0.6
				c-0.1-0.3-0.1-0.7-0.1-1.4c0-0.2,0-0.5,0-0.8s0-0.6,0-0.7v-4h-0.9l0.1-0.5c0.7-0.4,1.2-0.8,1.7-1.2c0.5-0.5,0.9-1,1.2-1.6h0.2
				c0,0.2,0,0.5,0,0.8c0,0.3,0,0.7,0,1.1v0.7h1.2l-0.2,0.7h-1V33.7z"/>
			<path d="M137.3,33.5c0-1.3,0.4-2.4,1.1-3.2c0.7-0.8,1.6-1.2,2.8-1.2c1.1,0,2,0.4,2.8,1.2c0.7,0.8,1.1,1.9,1.1,3.1
				c0,1.3-0.4,2.4-1.1,3.2s-1.6,1.2-2.8,1.2c-1.1,0-2-0.4-2.7-1.3C137.6,35.8,137.3,34.7,137.3,33.5z M141.1,37.4
				c0.5,0,0.8-0.3,1.1-1c0.3-0.7,0.4-1.7,0.4-3c0-1.3-0.1-2.2-0.4-2.9c-0.3-0.7-0.6-1-1.1-1c-0.5,0-0.8,0.3-1.1,1
				c-0.3,0.7-0.4,1.6-0.4,2.8c0,1.3,0.1,2.3,0.4,3C140.3,37.1,140.6,37.4,141.1,37.4z"/>
			<path d="M152.1,37.6c-0.2,0-0.4,0-0.5,0s-0.2,0-0.3,0c-0.2,0-0.5,0-0.7,0c-0.2,0-0.5,0-0.8,0.1l0-0.2c0.3-0.1,0.5-0.4,0.6-0.8
				c0.1-0.4,0.2-1.2,0.2-2.4v-0.4v-5.5c0-0.7-0.1-1.1-0.2-1.3c-0.1-0.2-0.3-0.3-0.6-0.3v-0.2c0.5-0.1,1-0.2,1.5-0.3
				c0.5-0.1,1-0.2,1.4-0.3v4.3c0.3-0.4,0.6-0.7,0.9-0.9c0.3-0.2,0.7-0.3,1.2-0.3c1,0,1.8,0.4,2.4,1.2c0.6,0.8,1,1.8,1,3
				c0,1.4-0.3,2.5-1,3.3c-0.6,0.9-1.4,1.3-2.4,1.3c-0.4,0-0.8-0.1-1.2-0.4c-0.4-0.2-0.8-0.6-1.2-1.1L152.1,37.6z M154.3,37.1
				c0.5,0,0.9-0.3,1.1-0.9c0.3-0.6,0.4-1.4,0.4-2.5c0-1.3-0.1-2.3-0.4-2.9c-0.3-0.6-0.7-1-1.2-1c-0.5,0-0.9,0.3-1.1,0.9
				c-0.3,0.6-0.4,1.5-0.4,2.7c0,1.2,0.1,2.1,0.4,2.7C153.4,36.7,153.8,37.1,154.3,37.1z"/>
			<path d="M161.4,32.6V33c0,1.3,0.2,2.3,0.6,3c0.4,0.7,0.9,1,1.7,1c0.5,0,1-0.3,1.4-0.8c0.4-0.5,0.7-1.2,0.9-2.1l0.4,0.3
				c-0.2,1.1-0.6,1.9-1.2,2.6s-1.4,0.9-2.3,0.9c-1.1,0-1.9-0.4-2.6-1.3c-0.7-0.9-1-1.9-1-3.2c0-1.2,0.4-2.3,1.1-3.1
				c0.7-0.8,1.6-1.2,2.7-1.2c1,0,1.9,0.3,2.5,1c0.6,0.6,0.9,1.5,0.9,2.6H161.4z M161.4,31.9h2.4c0-0.8-0.1-1.3-0.3-1.7
				c-0.2-0.4-0.5-0.6-0.8-0.6c-0.4,0-0.7,0.2-0.9,0.6C161.6,30.6,161.4,31.2,161.4,31.9z"/>
		</g>
		<g>
			<path d="M67.1,77.2V69h3.2c0.8,0,1.6,0.2,2.2,0.5c0.6,0.3,1.1,0.8,1.4,1.4c0.3,0.6,0.5,1.3,0.5,2.2c0,0.8-0.2,1.6-0.5,2.2
				c-0.3,0.6-0.8,1.1-1.4,1.4c-0.6,0.3-1.4,0.5-2.2,0.5H67.1z M69.1,75.6h1.2c0.7,0,1.3-0.2,1.7-0.6c0.4-0.4,0.6-1,0.6-1.8
				c0-0.8-0.2-1.4-0.6-1.8c-0.4-0.4-1-0.6-1.7-0.6h-1.2V75.6z"/>
			<path d="M79.7,77.2V69h6v1.6h-4.1v1.6h4v1.6h-4v1.7h4.2v1.6H79.7z"/>
			<path d="M91.1,77.2V69h1.9v3.1h3.5V69h1.9v8.2h-1.9v-3.5h-3.5v3.5H91.1z"/>
			<path d="M104.1,77.2V69h3.5c0.7,0,1.2,0.1,1.7,0.3c0.5,0.2,0.8,0.5,1.1,1c0.3,0.4,0.4,0.9,0.4,1.4c0,0.6-0.1,1.1-0.4,1.5
				c-0.3,0.4-0.7,0.7-1.1,1l2,3H109l-1.7-2.7H106v2.7H104.1z M106,72.9h1.3c0.5,0,0.9-0.1,1.2-0.3c0.2-0.2,0.4-0.5,0.4-0.9
				c0-0.4-0.1-0.7-0.4-0.8c-0.2-0.2-0.6-0.3-1.2-0.3H106V72.9z"/>
			<path d="M121.6,77.2l-0.6-1.6h-3.1l-0.6,1.6h-1.9l3.1-8.2h2l3.1,8.2H121.6z M118.5,74h2l-1-2.8L118.5,74z"/>
			<path d="M128.5,77.2V69h3.2c0.8,0,1.6,0.2,2.2,0.5c0.6,0.3,1.1,0.8,1.4,1.4c0.3,0.6,0.5,1.3,0.5,2.2c0,0.8-0.2,1.6-0.5,2.2
				c-0.3,0.6-0.8,1.1-1.4,1.4c-0.6,0.3-1.4,0.5-2.2,0.5H128.5z M130.4,75.6h1.2c0.7,0,1.3-0.2,1.7-0.6c0.4-0.4,0.6-1,0.6-1.8
				c0-0.8-0.2-1.4-0.6-1.8s-1-0.6-1.7-0.6h-1.2V75.6z"/>
			<path d="M142.5,77c-0.5-0.3-1-0.7-1.2-1.3c-0.3-0.6-0.4-1.2-0.4-2V69h1.9v4.4c0,0.7,0.1,1.2,0.4,1.7c0.3,0.4,0.7,0.6,1.3,0.6
				c0.6,0,1.1-0.2,1.4-0.6c0.3-0.4,0.4-1,0.4-1.7V69h1.9v4.6c0,0.8-0.1,1.4-0.4,2c-0.3,0.6-0.7,1-1.2,1.3c-0.5,0.3-1.2,0.5-2,0.5
				C143.7,77.4,143.1,77.3,142.5,77z"/>
			<path d="M153.7,77.2V69h1.8l3.7,5.3V69h1.8v8.2h-1.8l-3.7-5.3v5.3H153.7z"/>
		</g>
	</g>
	<g>
		<path class="st1" d="M180.1,46.7l2.4-0.6c-0.2-0.9-0.3-1.8-0.4-2.7h-2.5c-0.1-1.1-0.1-2.1-0.1-3.2c0-1.1,0-2.2,0.1-3.2h2.5
			c0.1-0.9,0.2-1.8,0.4-2.7l-2.4-0.6c0.4-2.1,0.9-4.2,1.7-6.2l2.4,0.6c0.3-0.9,0.7-1.7,1-2.5l-2.2-1.2c0.9-2,2-3.8,3.2-5.6l2.2,1.2
			c0.5-0.7,1.1-1.5,1.7-2.2l-1.8-1.8c1.4-1.6,2.9-3.2,4.5-4.5l1.8,1.8c0.7-0.6,1.4-1.1,2.2-1.7l-1.2-2.2c1.8-1.2,3.6-2.3,5.6-3.2
			l1.2,2.2c0.8-0.4,1.7-0.7,2.5-1l-0.6-2.4c2-0.7,4.1-1.3,6.2-1.7l0.6,2.4c0.9-0.2,1.8-0.3,2.7-0.4V2.8c1.1-0.1,2.1-0.1,3.2-0.1
			c1.1,0,2.2,0,3.2,0.1v2.5c0.9,0.1,1.8,0.2,2.7,0.4l0.6-2.4c2.1,0.4,4.2,0.9,6.2,1.7l-0.6,2.4c0.9,0.3,1.7,0.7,2.5,1l1.2-2.2
			c2,0.9,3.8,2,5.6,3.2l-1.2,2.2c0.7,0.5,1.5,1.1,2.2,1.7l1.8-1.8c1.6,1.4,3.2,2.9,4.5,4.5l-1.8,1.8c0.6,0.7,1.1,1.4,1.7,2.2
			l2.2-1.2c1.2,1.8,2.3,3.6,3.2,5.6l-2.2,1.2c0.4,0.8,0.7,1.7,1,2.5l2.4-0.6c0.7,2,1.3,4.1,1.7,6.2l-2.4,0.6
			c0.2,0.9,0.3,1.8,0.4,2.7h2.5c0.1,1.1,0.1,2.1,0.1,3.2c0,1.1,0,2.2-0.1,3.2h-2.5c-0.1,0.9-0.2,1.8-0.4,2.7l2.4,0.6
			c-0.4,2.1-0.9,4.2-1.7,6.2l-2.4-0.6c-0.3,0.9-0.7,1.7-1,2.5l2.2,1.2c-0.9,2-2,3.8-3.2,5.6l-2.2-1.2c-0.5,0.7-1.1,1.5-1.7,2.2
			l1.8,1.8c-1.4,1.6-2.9,3.2-4.5,4.5l-1.8-1.8c-0.7,0.6-1.4,1.1-2.2,1.7l1.2,2.2c-1.8,1.2-3.6,2.3-5.6,3.2l-1.2-2.2
			c-0.8,0.4-1.7,0.7-2.5,1l0.6,2.4c-2,0.7-4.1,1.3-6.2,1.7l-0.6-2.4c-0.9,0.2-1.8,0.3-2.7,0.4v2.5c-1.1,0.1-2.1,0.1-3.2,0.1
			c-1.1,0-2.2,0-3.2-0.1V75c-0.9-0.1-1.8-0.2-2.7-0.4l-0.6,2.4c-2.1-0.4-4.2-0.9-6.2-1.7l0.6-2.4c-0.9-0.3-1.7-0.7-2.5-1l-1.2,2.2
			c-2-0.9-3.8-2-5.6-3.2l1.2-2.2c-0.7-0.5-1.5-1.1-2.2-1.7l-1.8,1.8c-1.6-1.4-3.2-2.9-4.5-4.5l1.8-1.8c-0.6-0.7-1.1-1.4-1.7-2.2
			l-2.2,1.2c-1.2-1.8-2.3-3.6-3.2-5.6l2.2-1.2c-0.4-0.8-0.7-1.7-1-2.5l-2.4,0.6C181,50.9,180.5,48.9,180.1,46.7z"/>
		<path class="st2" d="M180.1,46.7l2.4-0.6c-0.2-0.9-0.3-1.8-0.4-2.7h-2.5c-0.1-1.1-0.1-2.1-0.1-3.2c0-1.1,0-2.2,0.1-3.2h2.5
			c0.1-0.9,0.2-1.8,0.4-2.7l-2.4-0.6c0.4-2.1,0.9-4.2,1.7-6.2l2.4,0.6c0.3-0.9,0.7-1.7,1-2.5l-2.2-1.2c0.9-2,2-3.8,3.2-5.6l2.2,1.2
			c0.5-0.7,1.1-1.5,1.7-2.2l-1.8-1.8c1.4-1.6,2.9-3.2,4.5-4.5l1.8,1.8c0.7-0.6,1.4-1.1,2.2-1.7l-1.2-2.2c1.8-1.2,3.6-2.3,5.6-3.2
			l1.2,2.2c0.8-0.4,1.7-0.7,2.5-1l-0.6-2.4c2-0.7,4.1-1.3,6.2-1.7l0.6,2.4c0.9-0.2,1.8-0.3,2.7-0.4V2.8c1.1-0.1,2.1-0.1,3.2-0.1
			c1.1,0,2.2,0,3.2,0.1v2.5c0.9,0.1,1.8,0.2,2.7,0.4l0.6-2.4c2.1,0.4,4.2,0.9,6.2,1.7l-0.6,2.4c0.9,0.3,1.7,0.7,2.5,1l1.2-2.2
			c2,0.9,3.8,2,5.6,3.2l-1.2,2.2c0.7,0.5,1.5,1.1,2.2,1.7l1.8-1.8c1.6,1.4,3.2,2.9,4.5,4.5l-1.8,1.8c0.6,0.7,1.1,1.4,1.7,2.2
			l2.2-1.2c1.2,1.8,2.3,3.6,3.2,5.6l-2.2,1.2c0.4,0.8,0.7,1.7,1,2.5l2.4-0.6c0.7,2,1.3,4.1,1.7,6.2l-2.4,0.6
			c0.2,0.9,0.3,1.8,0.4,2.7h2.5c0.1,1.1,0.1,2.1,0.1,3.2c0,1.1,0,2.2-0.1,3.2h-2.5c-0.1,0.9-0.2,1.8-0.4,2.7l2.4,0.6
			c-0.4,2.1-0.9,4.2-1.7,6.2l-2.4-0.6c-0.3,0.9-0.7,1.7-1,2.5l2.2,1.2c-0.9,2-2,3.8-3.2,5.6l-2.2-1.2c-0.5,0.7-1.1,1.5-1.7,2.2
			l1.8,1.8c-1.4,1.6-2.9,3.2-4.5,4.5l-1.8-1.8c-0.7,0.6-1.4,1.1-2.2,1.7l1.2,2.2c-1.8,1.2-3.6,2.3-5.6,3.2l-1.2-2.2
			c-0.8,0.4-1.7,0.7-2.5,1l0.6,2.4c-2,0.7-4.1,1.3-6.2,1.7l-0.6-2.4c-0.9,0.2-1.8,0.3-2.7,0.4v2.5c-1.1,0.1-2.1,0.1-3.2,0.1
			c-1.1,0-2.2,0-3.2-0.1V75c-0.9-0.1-1.8-0.2-2.7-0.4l-0.6,2.4c-2.1-0.4-4.2-0.9-6.2-1.7l0.6-2.4c-0.9-0.3-1.7-0.7-2.5-1l-1.2,2.2
			c-2-0.9-3.8-2-5.6-3.2l1.2-2.2c-0.7-0.5-1.5-1.1-2.2-1.7l-1.8,1.8c-1.6-1.4-3.2-2.9-4.5-4.5l1.8-1.8c-0.6-0.7-1.1-1.4-1.7-2.2
			l-2.2,1.2c-1.2-1.8-2.3-3.6-3.2-5.6l2.2-1.2c-0.4-0.8-0.7-1.7-1-2.5l-2.4,0.6C181,50.9,180.5,48.9,180.1,46.7z"/>
		<path class="st3" d="M180.1,46.7l2.4-0.6c-0.2-0.9-0.3-1.8-0.4-2.7h-2.5c-0.1-1.1-0.1-2.1-0.1-3.2c0-0.8,0-1.6,0.1-2.4l0.4-0.4
			l3.2,0.2l67.1,0l3.7-0.3l0.4,0.5c0,0.8,0.1,1.6,0.1,2.4c0,1.1,0,2.2-0.1,3.2h-2.5c-0.1,0.9-0.2,1.8-0.4,2.7l2.4,0.6
			c-0.4,2.1-0.9,4.2-1.7,6.2l-2.4-0.6c-0.3,0.9-0.7,1.7-1,2.5l2.2,1.2c-0.9,2-2,3.8-3.2,5.6l-2.2-1.2c-0.5,0.7-1.1,1.5-1.7,2.2
			l1.8,1.8c-1.4,1.6-2.9,3.2-4.5,4.5l-1.8-1.8c-0.7,0.6-1.4,1.1-2.2,1.7l1.2,2.2c-1.8,1.2-3.6,2.3-5.6,3.2l-1.2-2.2
			c-0.8,0.4-1.7,0.7-2.5,1l0.6,2.4c-2,0.7-4.1,1.3-6.2,1.7l-0.6-2.4c-0.9,0.2-1.8,0.3-2.7,0.4v2.5c-1.1,0.1-2.1,0.1-3.2,0.1
			c-1.1,0-2.2,0-3.2-0.1V75c-0.9-0.1-1.8-0.2-2.7-0.4l-0.6,2.4c-2.1-0.4-4.2-0.9-6.2-1.7l0.6-2.4c-0.9-0.3-1.7-0.7-2.5-1l-1.2,2.2
			c-2-0.9-3.8-2-5.6-3.2l1.2-2.2c-0.7-0.5-1.5-1.1-2.2-1.7l-1.8,1.8c-1.6-1.4-3.2-2.9-4.5-4.5l1.8-1.8c-0.6-0.7-1.1-1.4-1.7-2.2
			l-2.2,1.2c-1.2-1.8-2.3-3.6-3.2-5.6l2.2-1.2c-0.4-0.8-0.7-1.7-1-2.5l-2.4,0.6C181,50.9,180.5,48.9,180.1,46.7z"/>
		<path class="st4" d="M180.1,46.7l2.4-0.6c-0.2-0.9-0.3-1.8-0.4-2.7h-2.5c-0.1-1.1-0.1-2.1-0.1-3.2c0-0.8,0-1.6,0.1-2.4l0.4-0.4
			l3.2,0.2l67.1,0l3.7-0.3l0.4,0.5c0,0.8,0.1,1.6,0.1,2.4c0,1.1,0,2.2-0.1,3.2h-2.5c-0.1,0.9-0.2,1.8-0.4,2.7l2.4,0.6
			c-0.4,2.1-0.9,4.2-1.7,6.2l-2.4-0.6c-0.3,0.9-0.7,1.7-1,2.5l2.2,1.2c-0.9,2-2,3.8-3.2,5.6l-2.2-1.2c-0.5,0.7-1.1,1.5-1.7,2.2
			l1.8,1.8c-1.4,1.6-2.9,3.2-4.5,4.5l-1.8-1.8c-0.7,0.6-1.4,1.1-2.2,1.7l1.2,2.2c-1.8,1.2-3.6,2.3-5.6,3.2l-1.2-2.2
			c-0.8,0.4-1.7,0.7-2.5,1l0.6,2.4c-2,0.7-4.1,1.3-6.2,1.7l-0.6-2.4c-0.9,0.2-1.8,0.3-2.7,0.4v2.5c-1.1,0.1-2.1,0.1-3.2,0.1
			c-1.1,0-2.2,0-3.2-0.1V75c-0.9-0.1-1.8-0.2-2.7-0.4l-0.6,2.4c-2.1-0.4-4.2-0.9-6.2-1.7l0.6-2.4c-0.9-0.3-1.7-0.7-2.5-1l-1.2,2.2
			c-2-0.9-3.8-2-5.6-3.2l1.2-2.2c-0.7-0.5-1.5-1.1-2.2-1.7l-1.8,1.8c-1.6-1.4-3.2-2.9-4.5-4.5l1.8-1.8c-0.6-0.7-1.1-1.4-1.7-2.2
			l-2.2,1.2c-1.2-1.8-2.3-3.6-3.2-5.6l2.2-1.2c-0.4-0.8-0.7-1.7-1-2.5l-2.4,0.6C181,50.9,180.5,48.9,180.1,46.7z"/>
		<path class="st1" d="M217,6c18.1,0,33.3,14,34.5,31.8h-9.7c-1.2-12.6-11.8-22.5-24.7-22.5c-12.9,0-23.6,9.9-24.7,22.5l-9.7,0
			C183.8,20,198.9,6,217,6"/>
		<path class="st1" d="M217,15.1c13.9,0,25.1,11.2,25.1,25.1c0,13.9-11.2,25.1-25.1,25.1c-13.9,0-25.1-11.2-25.1-25.1
			C191.9,26.3,203.2,15.1,217,15.1z"/>
		<path class="st2" d="M217,15.1c13.9,0,25.1,11.2,25.1,25.1c0,13.9-11.2,25.1-25.1,25.1c-13.9,0-25.1-11.2-25.1-25.1
			C191.9,26.3,203.2,15.1,217,15.1z"/>
		<path class="st5" d="M217.8,16.4c-1.1,8.4-22.9,12.7-20,29.5c0.4,1.6,0.8,2.5,1.9,3.9c4.3,5.6,9.1,7.3,17.4,9.1
			c22.6-4,22.9-20.4,14.1-22.1c-5.8-0.7-10.7,0.3-14.6,3.8c8.2-5.7,17.8-2,14.2,6.6c-1.5,3.2-8,7.5-13.8,8.8
			c-13.3-3-20.5-12.5-10.1-23.8C215,24.5,217.9,20.8,217.8,16.4"/>
		<path class="st6" d="M217.3,22.4c-4.2,8.9-18.6,13.4-13.3,24.6c3.2,4.5,7.9,6.9,13,8.2c20-6.1,14.9-20.1,4.3-16.1
			c8.8-1.1,9.1,9.4-4.3,13.6c-8.3-1.9-12.6-6.8-9.9-13.5C209.7,32.4,215.4,30.8,217.3,22.4"/>
		<path class="st6" d="M206.9,42.7c3.5-6,13.8-5,10.8-20.4C217.9,34.9,207.1,36.2,206.9,42.7"/>
		<rect x="212.6" y="59.7" class="st5" width="8.7" height="1.8"/>
		<rect x="213.9" y="62.2" class="st5" width="6.1" height="1.8"/>
		<path class="st6" d="M218.3,20.1c3.5,6.3,4.3,12.4-3.1,17.9C219.7,32.3,220.4,26.3,218.3,20.1"/>
		<path class="st5" d="M241.8,25.4l1.4-1.6l-2.1,0.6L241.8,25.4z M241,26.4l-1.1-1.7l-0.9,0.3l-1-1.5l6-1.3l1,1.6l-3.6,4.9l-1-1.6
			L241,26.4z M237.6,18.3l0.5,0.5c0.1,0.1,0.2,0.1,0.4,0.3c0.1,0.1,0.2,0.1,0.3,0.1c0.1,0,0.2-0.1,0.3-0.2c0.1-0.1,0.2-0.3,0.2-0.4
			c0-0.2-0.1-0.3-0.4-0.6l-0.6-0.5L237.6,18.3z M234,19.5l3.9-4.1l2.1,2c0.4,0.4,0.7,0.7,0.8,1c0.1,0.3,0.2,0.6,0.1,0.9
			c0,0.3-0.2,0.6-0.4,0.9c-0.2,0.2-0.5,0.4-0.7,0.5c-0.3,0.1-0.5,0.1-0.8,0c-0.2,0-0.4-0.1-0.6-0.3c0.1,0.2,0.2,0.4,0.2,0.5
			c0,0.1,0,0.2,0,0.4c0,0.2,0,0.3-0.1,0.4l-0.5,1.8l-1.4-1.4l0.5-1.9c0.1-0.2,0.1-0.4,0.1-0.5c0-0.2-0.1-0.3-0.2-0.4l-0.1-0.1
			l-1.6,1.7L234,19.5z M232.3,11.5l4,2.5l-0.7,1l-2.5-1.6l-0.5,0.8l2.3,1.5l-0.6,1l-2.3-1.5l-0.6,0.9l2.6,1.6l-0.7,1.1l-4-2.6
			L232.3,11.5z M225,12.2l1.4,0.8c-0.2,0.4-0.4,0.7-0.7,0.9c-0.3,0.2-0.6,0.4-1,0.5c-0.4,0.1-0.8,0-1.3-0.1
			c-0.6-0.1-1.1-0.3-1.4-0.6c-0.3-0.3-0.6-0.6-0.8-1.2c-0.2-0.5-0.2-1.1,0-1.8c0.2-0.9,0.6-1.6,1.2-1.9c0.6-0.4,1.4-0.5,2.2-0.3
			c0.7,0.2,1.2,0.4,1.6,0.8c0.3,0.4,0.5,0.9,0.6,1.5l-1.6,0c0-0.2,0-0.3-0.1-0.4c-0.1-0.2-0.2-0.3-0.3-0.4c-0.1-0.1-0.3-0.2-0.4-0.2
			c-0.4-0.1-0.7,0-1,0.3c-0.2,0.2-0.4,0.5-0.5,1c-0.1,0.6-0.1,1.1,0,1.3c0.1,0.3,0.4,0.4,0.7,0.5c0.3,0.1,0.6,0,0.8-0.1
			C224.7,12.8,224.8,12.5,225,12.2z M218.2,7.8l1.8,0.1l-0.4,5.7l-1.8-0.1L218.2,7.8z M210.3,8.4l1.7-0.2l0.3,2l1.9-0.2l-0.3-2
			l1.8-0.2l0.7,5.7l-1.8,0.2l-0.3-2.3l-1.9,0.2l0.3,2.3l-1.7,0.2L210.3,8.4z M206.1,12.3l0.4-0.2c0.3-0.1,0.5-0.3,0.6-0.4
			c0.1-0.2,0.1-0.3,0-0.5c-0.1-0.2-0.2-0.3-0.3-0.4c-0.2-0.1-0.4,0-0.7,0.1l-0.5,0.2L206.1,12.3z M203.6,10.7l2.7-1.1
			c0.6-0.2,1.1-0.3,1.5-0.1c0.4,0.2,0.7,0.5,0.9,1c0.2,0.5,0.2,1,0,1.4c-0.2,0.4-0.6,0.8-1.3,1l-0.9,0.4l0.8,2l-1.6,0.6L203.6,10.7z
			 M201.8,15.6l-1.6-1.4l0.6,2.1L201.8,15.6z M202.7,16.5l-1.7,1.1l0.3,0.9l-1.5,1l-1.3-6l1.6-1l4.9,3.6l-1.6,1L202.7,16.5z
			 M194.7,20l0.5-0.5c0.1-0.1,0.1-0.2,0.3-0.4c0.1-0.1,0.1-0.2,0.1-0.3c0-0.1-0.1-0.2-0.2-0.3c-0.1-0.1-0.3-0.2-0.4-0.2
			c-0.2,0-0.3,0.1-0.6,0.4l-0.5,0.6L194.7,20z M195.9,23.6l-4.1-3.9l2-2.1c0.4-0.4,0.7-0.7,1-0.8c0.3-0.1,0.6-0.2,0.9-0.1
			c0.3,0,0.6,0.2,0.9,0.4c0.2,0.2,0.4,0.5,0.5,0.7c0.1,0.3,0.1,0.5,0,0.8c0,0.2-0.1,0.4-0.3,0.6c0.2-0.1,0.4-0.2,0.5-0.2
			c0.1,0,0.2,0,0.4,0c0.2,0,0.3,0,0.4,0.1l1.8,0.5l-1.4,1.4l-1.9-0.5c-0.2-0.1-0.4-0.1-0.5-0.1c-0.2,0-0.3,0.1-0.4,0.2l-0.1,0.1
			l1.7,1.6L195.9,23.6z M192.2,25.7l-1-0.6l1.4-2.4l2.1,1.2c0,0.6,0,1.1-0.1,1.6c-0.1,0.4-0.3,0.9-0.5,1.3c-0.3,0.6-0.7,1-1.1,1.3
			c-0.4,0.3-0.9,0.4-1.4,0.3c-0.5,0-1-0.2-1.5-0.5c-0.5-0.3-0.9-0.7-1.2-1.1c-0.3-0.5-0.4-1-0.3-1.5c0-0.4,0.2-0.9,0.5-1.5
			c0.3-0.5,0.6-0.9,0.9-1.1c0.3-0.2,0.5-0.4,0.8-0.4c0.3-0.1,0.7,0,1,0.1l-0.6,1.6c-0.2,0-0.4,0-0.6,0.1c-0.2,0.1-0.3,0.2-0.5,0.5
			c-0.2,0.3-0.2,0.7-0.1,1c0.1,0.3,0.4,0.6,0.9,0.9c0.5,0.3,1,0.4,1.3,0.4c0.3-0.1,0.6-0.3,0.8-0.6c0.1-0.2,0.2-0.3,0.2-0.5
			c0-0.2,0.1-0.4,0.1-0.7l-0.5-0.3L192.2,25.7z"/>
		<path class="st1" d="M245.9,39.1l2.5,1.6l1.9,0.1l0,1.1l-1.8-0.1l-2.7,1.5l0-1.3l1.6-0.8l-1.6-0.9L245.9,39.1z M249.7,46.8
			l-3.5-0.7l-0.2,1.3l-0.8-0.2l0.7-3.7l0.8,0.2l-0.2,1.3l3.5,0.7L249.7,46.8z M249.1,49.3l-0.8,2.3l-0.7-0.2l0.2-0.6l-2.7-0.9
			l-0.2,0.6l-0.7-0.2l0.8-2.3l0.7,0.2l-0.2,0.6l2.7,0.9l0.2-0.6L249.1,49.3z M247.1,54.7c-0.1,0.3-0.3,0.6-0.5,0.8
			c-0.2,0.2-0.3,0.4-0.5,0.6l-1-0.4l0-0.1c0.3-0.1,0.5-0.3,0.7-0.5c0.2-0.2,0.4-0.4,0.5-0.7c0-0.1,0.1-0.1,0.1-0.2
			c0-0.1,0-0.2,0-0.3c0-0.1,0-0.2,0-0.2c0-0.1-0.1-0.1-0.2-0.2c-0.1,0-0.2,0-0.3,0c-0.1,0.1-0.2,0.1-0.3,0.2
			c-0.1,0.1-0.2,0.3-0.3,0.4c-0.1,0.1-0.2,0.3-0.3,0.4c-0.3,0.3-0.5,0.4-0.7,0.5c-0.2,0.1-0.5,0-0.8-0.1c-0.4-0.2-0.6-0.5-0.7-0.9
			c-0.1-0.4,0-0.9,0.2-1.4c0.1-0.2,0.2-0.5,0.4-0.7c0.2-0.2,0.3-0.4,0.5-0.6l0.9,0.4l0,0.1c-0.2,0.1-0.4,0.2-0.6,0.4
			c-0.2,0.2-0.3,0.4-0.4,0.6c0,0.1-0.1,0.2-0.1,0.2c0,0.1,0,0.2,0,0.3c0,0.1,0,0.1,0.1,0.2c0,0.1,0.1,0.1,0.2,0.2c0.1,0,0.2,0,0.3,0
			c0.1,0,0.2-0.2,0.4-0.4c0.1-0.1,0.2-0.2,0.3-0.4c0.1-0.1,0.2-0.2,0.3-0.4c0.2-0.2,0.5-0.4,0.7-0.4c0.2-0.1,0.5,0,0.8,0.1
			c0.4,0.2,0.7,0.5,0.8,0.9C247.4,53.7,247.4,54.2,247.1,54.7z M242.3,56.7c-0.1-0.1-0.2-0.1-0.3-0.1c-0.1,0-0.2,0-0.3,0.1
			c-0.1,0-0.1,0.1-0.2,0.2c-0.1,0.1-0.1,0.1-0.2,0.3l-0.2,0.3l1,0.7l0.2-0.3c0.1-0.1,0.2-0.2,0.2-0.3c0-0.1,0.1-0.2,0.1-0.3
			c0-0.1,0-0.2-0.1-0.2C242.5,56.9,242.4,56.8,242.3,56.7z M245.9,57.1l-0.8,1.1l-2.1,0l-0.2,0.3l1.3,1l-0.7,0.9l-3.6-2.6l1.1-1.4
			c0.1-0.2,0.3-0.4,0.4-0.5c0.1-0.1,0.3-0.2,0.5-0.3c0.2-0.1,0.4-0.1,0.5-0.1c0.2,0,0.4,0.1,0.6,0.2c0.3,0.2,0.5,0.4,0.5,0.7
			c0.1,0.2,0.1,0.5,0,0.8L245.9,57.1z M240.3,64l-3.2-3.1l2.1-2.2l0.6,0.6l-1.3,1.4l0.6,0.5l1.2-1.3l0.6,0.6l-1.2,1.3l0.8,0.8
			l1.3-1.4l0.6,0.6L240.3,64z M236.6,61.5l1.6,4.4l-0.9,0.7l-4-2.5l0.9-0.7l2.6,1.7l-1.1-3L236.6,61.5z M235,68.3l-2.1,1.2l-0.4-0.7
			l0.6-0.3l-1.5-2.5l-0.6,0.3l-0.4-0.7l2.1-1.2l0.4,0.7l-0.6,0.3l1.5,2.5l0.6-0.3L235,68.3z M231.4,70.3l-1,0.4l-2.7-2.2l1.1,2.9
			l-1,0.4l-1.6-4.1l1.3-0.5l2.3,1.8l-0.9-2.4l1-0.4L231.4,70.3z M224.3,72.8c-0.6,0.1-1.1,0.1-1.4-0.1c-0.4-0.2-0.6-0.6-0.8-1.1
			l-0.6-2.8l1.1-0.3l0.6,2.7c0.1,0.3,0.2,0.5,0.3,0.6c0.1,0.1,0.3,0.2,0.6,0.1c0.2-0.1,0.4-0.2,0.5-0.3c0.1-0.2,0.1-0.4,0-0.7
			l-0.6-2.7l1.1-0.3l0.6,2.8c0.1,0.5,0.1,1-0.2,1.3C225.3,72.4,224.9,72.6,224.3,72.8z M216,73.5l-0.2-4.4l3-0.1l0,0.9l-1.9,0.1
			l0,0.8l1.8-0.1l0,0.9l-1.8,0.1l0,1.1l1.9-0.1l0,0.9L216,73.5z M213.4,71.9c0-0.1,0-0.2,0-0.3c0-0.1-0.1-0.2-0.2-0.2
			c-0.1,0-0.2-0.1-0.3-0.1c-0.1,0-0.3,0-0.5-0.1l-0.2,0l-0.1,1.1l0.1,0c0.3,0,0.5,0.1,0.6,0.1c0.1,0,0.2,0,0.3,0
			c0.1,0,0.2-0.1,0.2-0.2C213.3,72.1,213.3,72,213.4,71.9z M213.3,70.1c0-0.1,0-0.1,0-0.2c0-0.1-0.1-0.1-0.2-0.2
			c-0.1,0-0.2-0.1-0.3-0.1c-0.1,0-0.2,0-0.4-0.1l-0.1,0l-0.1,0.9l0.1,0c0.2,0,0.3,0,0.4,0c0.1,0,0.2,0,0.2,0c0.1,0,0.2-0.1,0.2-0.2
			C213.3,70.2,213.3,70.2,213.3,70.1z M214.5,72.1c0,0.2-0.1,0.4-0.2,0.6c-0.1,0.2-0.2,0.3-0.4,0.4c-0.2,0.1-0.4,0.2-0.6,0.2
			c-0.2,0-0.5,0-0.8,0l-1.8-0.2l0.5-4.4l1.6,0.2c0.3,0,0.6,0.1,0.7,0.1c0.2,0,0.3,0.1,0.5,0.2c0.1,0.1,0.3,0.2,0.3,0.4
			c0.1,0.2,0.1,0.3,0.1,0.5c0,0.2-0.1,0.4-0.2,0.6c-0.1,0.2-0.3,0.3-0.5,0.3l0,0c0.3,0.1,0.5,0.2,0.6,0.4
			C214.5,71.5,214.5,71.8,214.5,72.1z M207.2,69.7c0.1-0.2,0.2-0.5,0.2-0.7c0-0.2,0-0.4,0-0.5c0-0.1-0.1-0.3-0.2-0.4
			c-0.1-0.1-0.2-0.2-0.3-0.2c-0.1-0.1-0.3-0.1-0.4-0.1c-0.1,0-0.3,0-0.4,0.1c-0.1,0.1-0.3,0.2-0.4,0.3c-0.1,0.2-0.2,0.4-0.3,0.6
			c-0.1,0.3-0.2,0.5-0.2,0.7c0,0.2,0,0.4,0,0.5c0,0.2,0.1,0.3,0.2,0.4c0.1,0.1,0.2,0.2,0.3,0.2c0.1,0,0.3,0.1,0.4,0.1
			c0.1,0,0.3,0,0.4-0.1c0.1-0.1,0.3-0.2,0.4-0.3C207,70.2,207.1,70,207.2,69.7z M208.3,70.2c-0.3,0.7-0.7,1.1-1.2,1.4
			c-0.5,0.2-1.1,0.2-1.7,0c-0.6-0.3-1-0.6-1.2-1.2c-0.2-0.5-0.2-1.1,0.1-1.8c0.3-0.7,0.7-1.1,1.2-1.4c0.5-0.2,1.1-0.2,1.7,0
			c0.6,0.3,1,0.6,1.2,1.2C208.6,68.9,208.6,69.5,208.3,70.2z M200.2,68.9l1.8-3.1l-1.1-0.7l0.4-0.7l3.2,1.9l-0.4,0.7l-1.1-0.7
			l-1.8,3.1L200.2,68.9z M197.2,64.2c0.2-0.2,0.3-0.4,0.4-0.7c0.1-0.2,0.1-0.4,0-0.7c-0.1-0.2-0.1-0.3-0.3-0.4
			c-0.1-0.1-0.3-0.2-0.4-0.4l0,0l-1.8,2.1l0,0c0.2,0.2,0.4,0.3,0.5,0.4c0.1,0.1,0.3,0.2,0.5,0.2c0.2,0,0.4,0,0.6-0.1
			C196.8,64.5,197,64.4,197.2,64.2z M198.1,64.9c-0.3,0.3-0.6,0.5-0.9,0.7c-0.4,0.1-0.7,0.2-1,0.1c-0.3,0-0.5-0.1-0.8-0.3
			c-0.2-0.1-0.5-0.3-0.7-0.5l-1-0.9l2.9-3.4l1,0.9c0.2,0.2,0.4,0.4,0.6,0.6c0.2,0.2,0.3,0.5,0.4,0.7c0.1,0.3,0.1,0.7,0,1
			C198.5,64.3,198.3,64.6,198.1,64.9z M190.5,60.4l3.4-2.9l2,2.3l-0.6,0.6l-1.2-1.4l-0.6,0.5l1.2,1.3l-0.6,0.6l-1.2-1.3l-0.8,0.7
			l1.2,1.4l-0.6,0.6L190.5,60.4z M189.4,58.9l-0.6-1l2.5-1.5l-2.1,0.3l-0.4-0.7l1.2-1.7l-2.5,1.5l-0.5-0.9l3.8-2.3l0.7,1.1l-1.4,2
			l2.4-0.3l0.7,1.1L189.4,58.9z M185.3,50.5l4.2-1.6l1.1,2.8l-0.8,0.3l-0.7-1.8l-0.7,0.3l0.6,1.6l-0.8,0.3l-0.6-1.6l-1,0.4l0.7,1.8
			l-0.8,0.3L185.3,50.5z M184.2,45.9l4.3-1l0.7,2.9l-0.8,0.2l-0.4-1.9l-0.8,0.2l0.4,1.7l-0.8,0.2l-0.4-1.7l-1.1,0.3l0.4,1.8
			l-0.8,0.2L184.2,45.9z M186.1,43c0.3,0,0.5-0.1,0.7-0.2c0.2-0.1,0.3-0.3,0.5-0.5c0.1-0.2,0.1-0.3,0.1-0.5c0-0.2,0-0.4,0-0.6l0,0
			l-2.8,0.2l0,0c0,0.2,0,0.5,0.1,0.6c0,0.2,0.1,0.3,0.2,0.5c0.1,0.2,0.3,0.3,0.5,0.4C185.5,43,185.8,43,186.1,43z M186.1,44.1
			c-0.4,0-0.8,0-1.1-0.2c-0.3-0.2-0.6-0.4-0.8-0.6c-0.2-0.2-0.3-0.5-0.3-0.7c-0.1-0.3-0.1-0.6-0.1-0.9l-0.1-1.4l4.4-0.3l0.1,1.4
			c0,0.3,0,0.6,0,0.9c0,0.3-0.1,0.5-0.2,0.8c-0.2,0.3-0.4,0.6-0.7,0.7C186.9,44,186.6,44.1,186.1,44.1z"/>
	</g>
</g>
</svg>
